<?xml version="1.0" encoding="utf-8"?>
<!-- Generator: Adobe Illustrator 15.0.0, SVG Export Plug-In . SVG Version: 6.00 Build 0)  -->
<!DOCTYPE svg PUBLIC "-//W3C//DTD SVG 1.1//EN" "http://www.w3.org/Graphics/SVG/1.1/DTD/svg11.dtd">
<svg version="1.1" id="Layer_1" xmlns="http://www.w3.org/2000/svg" xmlns:xlink="http://www.w3.org/1999/xlink" x="0px" y="0px"
	 width="16px" height="16px" viewBox="0 0 16 16" enable-background="new 0 0 16 16" xml:space="preserve">
<rect display="none" fill="#66A19F" width="87" height="2381.97"/>
<rect x="8" y="389.97" display="none" opacity="0.2" fill="#E94E47" enable-background="new    " width="16" height="16"/>
<g>
	<path fill="#1D1D1B" d="M5,1c0.55,0,1,0.45,1,1v12c0,0.55-0.45,1-1,1H3c-0.55,0-1-0.45-1-1V2c0-0.55,0.45-1,1-1H5z"/>
</g>
<g>
	<path fill="#1D1D1B" d="M13,1c0.55,0,1,0.45,1,1v12c0,0.55-0.45,1-1,1h-2c-0.55,0-1-0.45-1-1V2c0-0.55,0.45-1,1-1H13z"/>
</g>
</svg>
