<?xml version="1.0" encoding="utf-8"?>
<!-- Generator: Adobe Illustrator 15.0.0, SVG Export Plug-In  -->
<!DOCTYPE svg PUBLIC "-//W3C//DTD SVG 1.1//EN" "http://www.w3.org/Graphics/SVG/1.1/DTD/svg11.dtd" [
	<!ENTITY ns_flows "http://ns.adobe.com/Flows/1.0/">
]>
<svg version="1.1"
	 xmlns="http://www.w3.org/2000/svg" xmlns:xlink="http://www.w3.org/1999/xlink" xmlns:a="http://ns.adobe.com/AdobeSVGViewerExtensions/3.0/"
	 x="0px" y="0px" width="8px" height="8px" viewBox="0 0 8 8" enable-background="new 0 0 8 8" xml:space="preserve">
<defs>
</defs>
<path fill="#333333" d="M5.477,4l2.218-2.216c0.407-0.408,0.407-1.07,0-1.478c-0.409-0.408-1.07-0.408-1.478,0L4,2.522L1.784,0.306
	c-0.409-0.408-1.07-0.408-1.478,0c-0.408,0.407-0.408,1.069,0,1.478L2.522,4L0.306,6.217c-0.408,0.407-0.408,1.068,0,1.478
	C0.51,7.898,0.777,8,1.045,8S1.58,7.898,1.784,7.694L4,5.478l2.218,2.217C6.42,7.898,6.689,8,6.957,8
	c0.265,0,0.532-0.102,0.738-0.306c0.407-0.409,0.407-1.07,0-1.478L5.477,4z"/>
</svg>
