<?xml version="1.0" encoding="utf-8"?>
<!-- Generator: Adobe Illustrator 15.0.0, SVG Export Plug-In  -->
<!DOCTYPE svg PUBLIC "-//W3C//DTD SVG 1.1//EN" "http://www.w3.org/Graphics/SVG/1.1/DTD/svg11.dtd" [
	<!ENTITY ns_flows "http://ns.adobe.com/Flows/1.0/">
]>
<svg version="1.1"
	 xmlns="http://www.w3.org/2000/svg" xmlns:xlink="http://www.w3.org/1999/xlink" xmlns:a="http://ns.adobe.com/AdobeSVGViewerExtensions/3.0/"
	 x="0px" y="0px" width="20px" height="20px" viewBox="0 -1 20 20" enable-background="new 0 -1 20 20" xml:space="preserve">
<defs>
</defs>
<path fill="#F68B20" d="M19.591,14.837L11.745,1.246c-0.96-1.662-2.529-1.662-3.489,0L0.41,14.837
	c-0.96,1.662-0.175,3.02,1.743,3.02h15.696C19.766,17.856,20.55,16.499,19.591,14.837z M8.922,5.102
	C9.205,4.797,9.563,4.645,10,4.645s0.796,0.151,1.078,0.452c0.281,0.301,0.421,0.677,0.421,1.13c0,0.39-0.585,3.254-0.781,5.338
	h-1.41C9.136,9.48,8.501,6.616,8.501,6.226C8.501,5.78,8.642,5.405,8.922,5.102z M11.059,15.011
	c-0.297,0.289-0.65,0.434-1.058,0.434c-0.409,0-0.762-0.145-1.059-0.434C8.647,14.723,8.5,14.374,8.5,13.964
	c0-0.408,0.147-0.761,0.442-1.057c0.297-0.295,0.649-0.443,1.059-0.443c0.408,0,0.761,0.148,1.058,0.443
	c0.296,0.296,0.443,0.648,0.443,1.057C11.502,14.374,11.354,14.723,11.059,15.011z"/>
</svg>
